<svg width="1728" height="1175" viewBox="0 0 1728 1175" fill="none" xmlns="http://www.w3.org/2000/svg">
<path d="M-420.48 1174.2C-359.098 941.18 -93.793 462.175 476.375 410.341C1046.54 358.508 1373.23 31.8202 1465.3 -125.044" stroke="#CCCCCC"/>
<path d="M-381.042 1174.2C-319.66 941.18 -54.355 462.175 515.813 410.341C1085.98 358.508 1412.67 31.8202 1504.74 -125.044" stroke="#CCCCCC"/>
<path d="M-341.604 1174.2C-280.223 941.18 -14.9171 462.175 555.251 410.341C1125.42 358.508 1452.11 31.8202 1544.18 -125.044" stroke="#CCCCCC"/>
<path d="M-302.167 1174.2C-240.785 941.18 24.5208 462.175 594.689 410.341C1164.86 358.508 1491.54 31.8202 1583.62 -125.044" stroke="#CCCCCC"/>
<path d="M-262.729 1174.2C-201.347 941.18 63.9587 462.175 634.127 410.341C1204.3 358.508 1530.98 31.8202 1623.06 -125.044" stroke="#CCCCCC"/>
<path d="M-223.291 1174.2C-161.909 941.18 103.396 462.175 673.565 410.341C1243.73 358.508 1570.42 31.8202 1662.49 -125.044" stroke="#CCCCCC"/>
<path d="M-183.853 1174.2C-122.471 941.18 142.834 462.175 713.003 410.341C1283.17 358.508 1609.86 31.8202 1701.93 -125.044" stroke="#CCCCCC"/>
<path d="M-144.415 1174.2C-83.0332 941.18 182.272 462.175 752.441 410.341C1322.61 358.508 1649.3 31.8202 1741.37 -125.044" stroke="#CCCCCC"/>
</svg>
