<svg width="88" height="88" viewBox="0 0 88 88" fill="none" xmlns="http://www.w3.org/2000/svg">
<path d="M77.9602 42.7793C78.4095 43.4518 78.4095 44.3287 77.9602 45.0012L75.0787 49.3147C74.7841 49.7557 74.6768 50.2955 74.7802 50.8157L75.7916 55.9035C75.9493 56.6967 75.6138 57.5069 74.9413 57.9563L70.6285 60.8387C70.1876 61.1334 69.8818 61.5911 69.7783 62.1111L68.7657 67.1988C68.6079 67.992 67.9878 68.612 67.1946 68.7699L62.107 69.7825C61.5869 69.886 61.1292 70.1918 60.8345 70.6327L57.9521 74.9455C57.5027 75.618 56.6925 75.9535 55.8993 75.7958L50.8115 74.7843C50.2914 74.6809 49.7515 74.7883 49.3105 75.0829L44.9971 77.9644C44.3245 78.4137 43.4476 78.4137 42.7751 77.9644L38.4617 75.0829C38.0207 74.7883 37.4808 74.6809 36.9607 74.7843L31.8729 75.7958C31.0796 75.9535 30.2695 75.618 29.8201 74.9455L26.9377 70.6327C26.643 70.1918 26.1853 69.886 25.6652 69.7824L20.5776 68.7699C19.7844 68.612 19.1643 67.992 19.0065 67.1988L17.9939 62.1111C17.8904 61.5911 17.5846 61.1334 17.1437 60.8387L12.8308 57.9563C12.1584 57.5069 11.8228 56.6967 11.9805 55.9035L12.992 50.8157C13.0954 50.2955 12.988 49.7557 12.6935 49.3147L9.81194 45.0012C9.36268 44.3287 9.36268 43.4518 9.81194 42.7793L12.6935 38.4658C12.988 38.0249 13.0954 37.485 12.992 36.9649L11.9805 31.8771C11.8228 31.0838 12.1584 30.2737 12.8308 29.8243L17.1437 26.9419C17.5846 26.6472 17.8904 26.1895 17.9939 25.6694L19.0065 20.5818C19.1643 19.7886 19.7844 19.1685 20.5776 19.0106L25.6652 17.9981C26.1853 17.8946 26.643 17.5888 26.9377 17.1479L29.8201 12.835C30.2695 12.1626 31.0796 11.827 31.8729 11.9847L36.9607 12.9962C37.4808 13.0996 38.0207 12.9922 38.4617 12.6976L42.7751 9.81613C43.4476 9.36687 44.3245 9.36687 44.9971 9.81613L49.3105 12.6976C49.7515 12.9922 50.2914 13.0996 50.8115 12.9962L55.8993 11.9847C56.6925 11.827 57.5027 12.1626 57.9521 12.835L60.8345 17.1479C61.1292 17.5888 61.5869 17.8946 62.107 17.9981L67.1946 19.0106C67.9878 19.1685 68.6079 19.7886 68.7657 20.5818L69.7783 25.6694C69.8818 26.1895 70.1876 26.6472 70.6285 26.9419L74.9413 29.8243C75.6138 30.2737 75.9493 31.0838 75.7916 31.8771L74.7802 36.9649C74.6768 37.485 74.7841 38.0249 75.0787 38.4658L77.9602 42.7793Z" fill="#446DFF"/>
<path d="M85.6314 44.4457L81.7526 50.2521C81.3107 50.9135 81.1496 51.7234 81.3047 52.5035L82.6663 59.3523C82.7451 59.7489 82.5774 60.154 82.2411 60.3787L76.4356 64.2587C75.7742 64.7007 75.3155 65.3872 75.1603 66.1674L73.7973 73.0158C73.7183 73.4124 73.4083 73.7225 73.0117 73.8014L66.1632 75.1644C65.3831 75.3196 64.6966 75.7784 64.2546 76.4397L60.3745 82.2453C60.1498 82.5815 59.7448 82.7493 59.3481 82.6704L52.4994 81.3089C51.7192 81.1538 50.9094 81.3148 50.248 81.7567L44.4416 85.6355C44.1053 85.8601 43.6669 85.8601 43.3306 85.6355L37.5243 81.7567C36.8628 81.3148 36.053 81.1538 35.2728 81.3089L28.4241 82.6704C28.0275 82.7493 27.6224 82.5815 27.3977 82.2453L23.5177 76.4397C23.0757 75.7784 22.3891 75.3196 21.609 75.1644L14.7605 73.8014C14.3639 73.7225 14.0539 73.4124 13.975 73.0158L12.612 66.1674C12.4567 65.3872 11.998 64.7007 11.3367 64.2587L5.53109 60.3787C5.19488 60.154 5.02709 59.7489 5.10595 59.3523L6.46751 52.5035C6.62261 51.7233 6.46152 50.9135 6.01967 50.2521L2.14085 44.4457C1.91622 44.1095 1.91622 43.671 2.14085 43.3348L6.01967 37.5284C6.46153 36.867 6.62261 36.0571 6.46751 35.277L5.10595 28.4282C5.02709 28.0316 5.19488 27.6265 5.5311 27.4018L11.3367 23.5218C11.998 23.0798 12.4567 22.3933 12.612 21.6131L13.975 14.7647C14.0539 14.3681 14.3639 14.058 14.7606 13.9791L21.609 12.6161C22.3891 12.4608 23.0757 12.0021 23.5177 11.3408L27.3977 5.53521C27.6224 5.199 28.0275 5.03122 28.4241 5.11007L35.2728 6.47163C36.053 6.62673 36.8628 6.46564 37.5243 6.02379L43.3306 2.14497C43.6669 1.92034 44.1053 1.92034 44.4416 2.14497L50.248 6.02379C50.9094 6.46564 51.7192 6.62673 52.4994 6.47163L59.3481 5.11007C59.7448 5.03122 60.1498 5.199 60.3745 5.53522L64.2546 11.3408C64.6966 12.0021 65.3831 12.4608 66.1632 12.6161L73.0117 13.9791C73.4083 14.058 73.7183 14.3681 73.7973 14.7647L75.1603 21.6131C75.3155 22.3933 75.7742 23.0798 76.4356 23.5218L82.2411 27.4018C82.5774 27.6265 82.7451 28.0316 82.6663 28.4282L81.3047 35.277C81.1496 36.0571 81.3107 36.867 81.7526 37.5284L85.6314 43.3348C85.856 43.671 85.856 44.1095 85.6314 44.4457Z" stroke="#446DFF" stroke-width="2"/>
</svg>
