<svg width="242" height="243" viewBox="0 0 242 243" fill="none" xmlns="http://www.w3.org/2000/svg">
<path d="M128.033 5.83346L135.408 10.7602C139.597 13.5586 144.726 14.5788 149.667 13.5965L158.366 11.8671C163.523 10.842 168.789 13.0233 171.71 17.394L176.638 24.7681C179.437 28.9565 183.785 31.8618 188.726 32.8451L197.425 34.5764C202.581 35.6025 206.611 39.6329 207.637 44.7888L209.368 53.4875C210.352 58.4284 213.257 62.7764 217.446 65.5757L224.82 70.504C229.19 73.4251 231.372 78.6911 230.347 83.8472L228.617 92.5463C227.635 97.4873 228.655 102.616 231.453 106.805L236.38 114.18C239.3 118.552 239.3 124.252 236.38 128.623L231.453 135.998C228.655 140.187 227.635 145.316 228.617 150.257L230.347 158.956C231.372 164.112 229.19 169.378 224.82 172.299L217.446 177.228C213.257 180.027 210.352 184.375 209.368 189.316L207.637 198.014C206.611 203.17 202.581 207.201 197.425 208.227L188.726 209.958C183.785 210.941 179.437 213.847 176.638 218.035L171.71 225.409C168.789 229.78 163.523 231.961 158.366 230.936L149.667 229.207C144.726 228.224 139.597 229.245 135.408 232.043L128.033 236.97C123.662 239.89 117.962 239.89 113.591 236.97L106.216 232.043C102.027 229.245 96.8977 228.224 91.9567 229.207L83.2576 230.936C78.1015 231.961 72.8355 229.78 69.9144 225.409L64.9861 218.035C62.1868 213.847 57.8388 210.941 52.8979 209.958L44.1992 208.227C39.0433 207.201 35.0129 203.17 33.9868 198.014L32.2555 189.316C31.2722 184.375 28.3669 180.027 24.1785 177.228L16.8044 172.299C12.4337 169.378 10.2524 164.112 11.2775 158.956L13.0069 150.257C13.9892 145.316 12.969 140.187 10.1706 135.998L5.24386 128.623C2.32367 124.252 2.32366 118.552 5.24386 114.18L10.1706 106.805C12.969 102.616 13.9892 97.4873 13.0069 92.5463L11.2775 83.8472C10.2524 78.6911 12.4337 73.4251 16.8044 70.504L24.1785 65.5757C28.3669 62.7764 31.2722 58.4284 32.2555 53.4875L33.9868 44.7888C35.0129 39.6329 39.0433 35.6025 44.1992 34.5764L52.8979 32.8451C57.8388 31.8618 62.1868 28.9565 64.9861 24.7681L69.9144 17.394C72.8355 13.0233 78.1015 10.842 83.2576 11.8671L91.9567 13.5965C96.8977 14.5788 102.027 13.5586 106.216 10.7602L113.591 5.83346C117.962 2.91327 123.662 2.91326 128.033 5.83346Z" stroke="#4A72FF" stroke-width="4"/>
</svg>
