<svg width="242" height="243" viewBox="0 0 242 243" fill="none" xmlns="http://www.w3.org/2000/svg">
<path d="M111.924 3.33888C117.304 -0.255207 124.32 -0.255209 129.7 3.33887L137.075 8.26563C140.602 10.6222 144.922 11.4813 149.082 10.6541L157.781 8.92467C164.127 7.66306 170.609 10.3477 174.204 15.7271L179.132 23.1011C181.489 26.6282 185.151 29.0748 189.312 29.9028L198.01 31.6341C204.356 32.897 209.317 37.8575 210.58 44.2032L212.311 52.9019C213.139 57.0627 215.585 60.7242 219.113 63.0815L226.487 68.0098C231.866 71.605 234.551 78.0862 233.289 84.4322L231.56 93.1312C230.732 97.2921 231.591 101.611 233.948 105.139L238.875 112.514C242.469 117.894 242.469 124.909 238.875 130.289L233.948 137.664C231.591 141.192 230.732 145.511 231.56 149.672L233.289 158.371C234.551 164.717 231.866 171.198 226.487 174.793L219.113 179.722C215.585 182.079 213.139 185.741 212.311 189.901L210.58 198.6C209.317 204.946 204.356 209.906 198.01 211.169L189.312 212.9C185.151 213.728 181.489 216.175 179.132 219.702L174.204 227.076C170.609 232.456 164.127 235.14 157.781 233.879L149.082 232.149C144.922 231.322 140.602 232.181 137.075 234.538L129.7 239.464C124.32 243.058 117.304 243.058 111.924 239.464L104.549 234.538C101.022 232.181 96.7025 231.322 92.5416 232.149L83.8426 233.879C77.4966 235.14 71.0154 232.456 67.4202 227.076L62.4919 219.702C60.1346 216.175 56.4731 213.728 52.3123 212.9L43.6136 211.169C37.2679 209.906 32.3074 204.946 31.0445 198.6L29.3132 189.901C28.4852 185.741 26.0386 182.079 22.5115 179.722L15.1375 174.793C9.75807 171.198 7.07346 164.717 8.33507 158.371L10.0645 149.672C10.8917 145.511 10.0326 141.192 7.67604 137.664L2.74928 130.289C-0.844806 124.909 -0.844809 117.894 2.74927 112.514L7.67603 105.139C10.0326 101.611 10.8917 97.2921 10.0645 93.1312L8.33507 84.4322C7.07346 78.0862 9.75807 71.605 15.1375 68.0098L22.5115 63.0815C26.0386 60.7242 28.4852 57.0627 29.3132 52.9019L31.0445 44.2032C32.3074 37.8575 37.2679 32.897 43.6136 31.6341L52.3123 29.9028C56.4731 29.0748 60.1346 26.6282 62.4919 23.1011L67.4202 15.7271C71.0154 10.3477 77.4966 7.66306 83.8426 8.92467L92.5416 10.6541C96.7025 11.4813 101.022 10.6222 104.549 8.26564L111.924 3.33888Z" fill="#4A72FF"/>
</svg>
